<svg width="15" height="24" viewBox="0 0 15 24" fill="none" xmlns="http://www.w3.org/2000/svg">
<path d="M3.71345 14.4218L5.57072 15.3036C6.75892 15.867 8.12015 15.867 9.31988 15.3036L11.1771 14.4218C12.8383 13.6379 14.3726 15.7691 13.219 17.2633L9.2276 22.4442C8.24705 23.718 6.64356 23.718 5.65148 22.4442L1.67161 17.2633C0.50649 15.7691 2.04075 13.6379 3.71345 14.4218Z" fill="#F0D85A"/>
<path d="M3.48263 11.0414C3.13655 11.3109 3.1827 11.8743 3.57491 12.0825L6.28584 13.5155C6.92031 13.8584 7.947 13.8584 8.56994 13.5155L11.2809 12.0825C11.6615 11.8743 11.7077 11.3231 11.3731 11.0414L7.7855 8.17539C7.57786 8.01616 7.30099 8.01616 7.09334 8.17539L3.48263 11.0414Z" fill="#F0D85A"/>
<path d="M14.2226 6.84039L9.41216 0.471465C9.31987 0.348986 9.21605 0.238754 9.11222 0.128523C8.81229 -0.177676 8.38547 0.104027 8.38547 0.544953V5.81157C8.38547 6.00753 8.46621 6.19125 8.61618 6.30148L13.4036 10.1228L13.6112 10.2821C13.8189 10.4413 14.1072 10.4413 14.2803 10.2453C15.0878 9.31448 15.0763 7.9672 14.2226 6.84039Z" fill="#F0D85A"/>
<path d="M0.64494 6.95081L5.43232 0.483895C5.52461 0.361415 5.61689 0.251184 5.72071 0.140953C6.02065 -0.165246 6.44747 0.104209 6.44747 0.557382V5.90973C6.44747 6.1057 6.36672 6.27717 6.21676 6.39965L1.45245 10.2822L1.25634 10.4415C1.04869 10.6007 0.760301 10.6007 0.575728 10.3925C-0.20871 9.44939 -0.197177 8.10211 0.64494 6.95081Z" fill="#F0D85A"/>
</svg>
